# xmcd
#
# Track frame offsets: 
#        150
#        10616
#        22604
#        34051
#        44531
#        54564
#        66101
#        80823
#        92851
#        105573
#
# Disc length: 1536 seconds
#
# Revision: 0
# Processed by: cddbd v1.5.2PL0 Copyright (c) Steve Scherf et al.
# Submitted via: ExactAudioCopy v1.3
#
DISCID=7405fe0a
DTITLE=Buck Owens and His Buckaroos - The Kansas City Song
DYEAR=1970
DGENRE=Country
TTITLE0=The Kansas City Song
TTITLE1=Bring Back My Piece Of Mind
TTITLE2=(It's A Long Way To) London Town
TTITLE3=I'd Love To Be Your Man
TTITLE4=You Can't Make Nothin' Out Of That But Love
TTITLE5=Amsterdam
TTITLE6=Black Texas Dirt
TTITLE7=Scandanavian Polka
TTITLE8=The Wind Blows Everyday In Oklahoma
TTITLE9=Full Time Daddy
EXTD=
EXTT0=
EXTT1=
EXTT2=
EXTT3=
EXTT4=
EXTT5=
EXTT6=
EXTT7=
EXTT8=
EXTT9=
PLAYORDER=
